name C:\Users\u0101727\Documents\MyRepositories\upper-imu-dc\Results\main_tracking\Case_49\kinematics.mot
datacolumns 10
datarows 33
range 0.70000000 1.02000000
endheader 
time	clav_prot	clav_elev	scapula_abduction	scapula_elevation	scapula_upward_rot	scapula_winging	plane_elv	shoulder_elv	axial_rot	
          0.70000000	        -27.07094114	         -4.06815570	        -19.83381826	         -4.37703804	         13.86908134	          4.96990183	        -34.14391870	         17.82714573	         23.88840023	
          0.71000000	        -27.06581951	         -4.07809994	        -19.73241694	         -4.37694901	         13.87759894	          4.96843366	        -34.16754175	         17.83122202	         23.94385250	
          0.72000000	        -27.05319702	         -4.07538633	        -19.70669202	         -4.37627865	         13.88630533	          4.96657933	        -34.19143593	         17.83699984	         23.99962652	
          0.73000000	        -27.04111578	         -4.07283247	        -19.68209801	         -4.37565164	         13.89456685	          4.96483275	        -34.21573041	         17.84262817	         24.05587082	
          0.74000000	        -27.02988614	         -4.07079691	        -19.65931196	         -4.37525357	         13.90196128	          4.96339196	        -34.24054754	         17.84732578	         24.11297500	
          0.75000000	        -27.01976128	         -4.06934643	        -19.63887821	         -4.37509367	         13.90826132	          4.96231262	        -34.26595906	         17.85075163	         24.17150456	
          0.76000000	        -27.01096301	         -4.06838500	        -19.62127481	         -4.37507980	         13.91333675	          4.96157392	        -34.29198501	         17.85272161	         24.23219802	
          0.77000000	        -27.00370624	         -4.06774850	        -19.60696498	         -4.37507677	         13.91709384	          4.96112349	        -34.31861475	         17.85311623	         24.29595542	
          0.78000000	        -26.99820103	         -4.06724121	        -19.59640186	         -4.37492944	         13.91945634	          4.96089434	        -34.34582099	         17.85183608	         24.36380077	
          0.79000000	        -26.99462670	         -4.06666212	        -19.58997418	         -4.37448261	         13.92037144	          4.96081468	        -34.37356992	         17.84879193	         24.43681713	
          0.80000000	        -26.99309147	         -4.06582576	        -19.58792074	         -4.37359929	         13.91982940	          4.96081389	        -34.40183238	         17.84391091	         24.51606005	
          0.81000000	        -26.99359301	         -4.06457812	        -19.59024716	         -4.37217567	         13.91788449	          4.96082649	        -34.43059774	         17.83714819	         24.60246826	
          0.82000000	        -26.99599183	         -4.06280952	        -19.59666921	         -4.37015268	         13.91466875	          4.96079556	        -34.45988870	         17.82849821	         24.69678998	
          0.83000000	        -27.00000425	         -4.06046320	        -19.60659759	         -4.36752269	         13.91039414	          4.96067599	        -34.48977159	         17.81800139	         24.79953652	
          0.84000000	        -27.00521906	         -4.05753825	        -19.61917223	         -4.36432979	         13.90534075	          4.96043693	        -34.52035794	         17.80574656	         24.91096586	
          0.85000000	        -27.01113803	         -4.05408621	        -19.63334687	         -4.36066333	         13.89983132	          4.96006335	        -34.55179703	         17.79186954	         25.03109490	
          0.86000000	        -27.01723389	         -4.05020244	        -19.64801056	         -4.35664596	         13.89419530	          4.95955658	        -34.58426251	         17.77654801	         25.15973903	
          0.87000000	        -27.02301431	         -4.04601426	        -19.66212201	         -4.35241873	         13.88872986	          4.95893385	        -34.61793807	         17.75999221	         25.29657645	
          0.88000000	        -27.02807870	         -4.04166721	        -19.67482918	         -4.34812575	         13.88366606	          4.95822643	        -34.65300623	         17.74243249	         25.44123074	
          0.89000000	        -27.03215748	         -4.03731060	        -19.68555183	         -4.34390018	         13.87914764	          4.95747599	        -34.68964304	         17.72410552	         25.59336018	
          0.90000000	        -27.03512817	         -4.03308273	        -19.69401556	         -4.33985284	         13.87522624	          4.95672904	        -34.72801814	         17.70524265	         25.75273791	
          0.91000000	        -27.03700731	         -4.02909757	        -19.70023442	         -4.33606462	         13.87187356	          4.95603003	        -34.76829651	         17.68606208	         25.91930606	
          0.92000000	        -27.03792045	         -4.02543523	        -19.70444735	         -4.33258401	         13.86900764	          4.95541441	        -34.81063702	         17.66676548	         26.09318972	
          0.93000000	        -27.03805859	         -4.02213792	        -19.70702589	         -4.32942971	         13.86652640	          4.95490324	        -34.85518456	         17.64753972	         26.27466324	
          0.94000000	        -27.03763436	         -4.01921160	        -19.70838130	         -4.32659708	         13.86433893	          4.95450024	        -34.90205547	         17.62856535	         26.46406765	
          0.95000000	        -27.03684979	         -4.01663258	        -19.70889603	         -4.32406642	         13.86238641	          4.95419207	        -34.95131684	         17.61003250	         26.66168559	
          0.96000000	        -27.03587924	         -4.01435730	        -19.70888740	         -4.32181148	         13.86065044	          4.95395129	        -35.00296130	         17.59216217	         26.86758798	
          0.97000000	        -27.03486292	         -4.01233315	        -19.70859346	         -4.31980735	         13.85915346	          4.95374049	        -35.05687880	         17.57522915	         27.08147407	
          0.98000000	        -27.03390473	         -4.01050790	        -19.70816781	         -4.31803711	         13.85795691	          4.95351630	        -35.11282829	         17.55958193	         27.30252781	
          0.99000000	        -27.03307191	         -4.00883679	        -19.70767833	         -4.31649668	         13.85715935	          4.95323217	        -35.17041226	         17.54565683	         27.52930911	
          1.00000000	        -27.03239757	         -4.00728682	        -19.70711156	         -4.31519767	         13.85689413	          4.95284020	        -35.22905587	         17.53398448	         27.75969141	
          1.01000000	        -27.03188815	         -4.00583885	        -19.70638756	         -4.31416833	         13.85732468	          4.95229229	        -35.28799122	         17.52518866	         27.99085106	
          1.02000000	        -27.03153848	         -4.00448810	        -19.70539075	         -4.31345241	         13.85863507	          4.95154115	        -35.34624732	         17.51997793	         28.21931059	
